# xmcd
#
# Track frame offsets:
#	150
#	11727
#	25553
#	40388
#	57908
#	75438
#	89641
#	102106
#	118678
#	133373
#	151153
#	164613
#	178134
#	195944
#	210404
#	226319
#	233957
#	246162
#	263119
#	277131
#	296451
#	310699
#	321266
#	334591
#
# Disc length: 4759 seconds
#
# Revision: 0
# Processed by: cddbd v1.5.1PL0 Copyright (c) Steve Scherf et al.
# Submitted via: audiograbber 1.83.01
#
DISCID=4e129518
DTITLE=Blandet - Giro 413
DYEAR=1900
DGENRE=
TTITLE0=Cliff Richard - Congratulations
TTITLE1=Richard Ragnvald - Kære Lille Mormor
TTITLE2=Lars Lilholt Band - Kald det kærlighed
TTITLE3=Otto Brandenburg - To Lys På Et Bord
TTITLE4=Jodle Birge - Rigtige venner
TTITLE5=Eva Madsen - Mormors kolonihavehus
TTITLE6=Tommy Seebach - Hip Hurra Det´ Min Fødselsdag
TTITLE7=Johnny Reimar - Sikke'n fest
TTITLE8=Keld and Hilda - Vi Skal Gå Hånd I Hånd
TTITLE9=Bamse - Kongens Have
TTITLE10=Birthe Kjær - Vi Maler Byen Rød
TTITLE11=Poul Reichardt - Er du dus med himlens fugle
TTITLE12=Gnags - Når jeg blir gammel
TTITLE13=Bjarne Lisby - De Gamle Bukser
TTITLE14=Peter Belli - Bedste
TTITLE15=Kaj and Andrea - Bakke Snagvendt Sangen
TTITLE16=Raquel Rastenni - Heksedansen
TTITLE17=Gustav Winckler - Skibet Skal Sejle I Nat
TTITLE18=John Mogensen - Så længe jeg lever
TTITLE19=Teddy Edelmann - Himmelhunden
TTITLE20=Poul Bundgaard - Tak Er Kun Et Fattigt Ord
TTITLE21=Louis Armstrong - What a wonderful world
TTITLE22=Pia Raug - Jeg vil male dagen blå
TTITLE23=Tørfisk - VLTJ
EXTD=
EXTT0=
EXTT1=
EXTT2=
EXTT3=
EXTT4=
EXTT5=
EXTT6=
EXTT7=
EXTT8=
EXTT9=
EXTT10=
EXTT11=
EXTT12=
EXTT13=
EXTT14=
EXTT15=
EXTT16=
EXTT17=
EXTT18=
EXTT19=
EXTT20=
EXTT21=
EXTT22=
EXTT23=
PLAYORDER=
